<?xml version="1.0" encoding="UTF-8"?>
<svg width="18px" height="16px" viewBox="0 0 18 16" version="1.1" xmlns="http://www.w3.org/2000/svg" xmlns:xlink="http://www.w3.org/1999/xlink">
  <path d="M9,2 C14.2028716,2 17.7133078,7.1416626 17.7133078,7.1416626 C18.0957293,7.61570926 18.0953987,8.39640677 17.7133078,8.8583374 C17.7133078,8.8583374 14.2028716,14 9,14 C3.79712839,14 0.28669217,8.8583374 0.28669217,8.8583374 C-0.09572934,8.38429074 -0.0953987377,7.60359323 0.28669217,7.1416626 C0.28669217,7.1416626 3.79712839,2 9,2 Z M9,12 C11.209139,12 13,10.209139 13,8 C13,5.790861 11.209139,4 9,4 C6.790861,4 5,5.790861 5,8 C5,10.209139 6.790861,12 9,12 Z M9,10 C10.1045695,10 11,9.1045695 11,8 C11,6.8954305 10.1045695,6 9,6 C7.8954305,6 7,6.8954305 7,8 C7,9.1045695 7.8954305,10 9,10 Z"></path>
</svg>
