<?xml version="1.0" encoding="UTF-8"?>
<svg width="86px" height="58px" viewBox="0 0 86 58" version="1.1" xmlns="http://www.w3.org/2000/svg" xmlns:xlink="http://www.w3.org/1999/xlink">
    <!-- Generator: Sketch 49.3 (51167) - http://www.bohemiancoding.com/sketch -->
    <title>Artboard</title>
    <desc>Created with Sketch.</desc>
    <defs></defs>
    <g id="Artboard" stroke="none" stroke-width="1" fill="none" fill-rule="evenodd">
        <path d="M0,58 L86,58 L86,0 L0,0 L0,58 Z M29.7071,43 L71.7071,1 L84.2928,1 L36.0001,49.293 L29.7071,43 Z M22.7071,35.9999 L57.7071,1 L70.2929,1 L29.0001,42.2929 L22.7071,35.9999 Z M43.7072,1 L56.2928,1 L50,7.2928 L43.7072,1 Z M29.7071,1 L42.2929,1 L49.2929,8 L43,14.2928 L29.7071,1 Z M1,15.7071 L15.7072,1 L28.2928,1 L1,28.293 L1,15.7071 Z M1,1 L14.2929,1 L1,14.2928 L1,1 Z M50.7072,35.9999 L85,1.7071 L85,14.2928 L57.0001,42.2929 L50.7072,35.9999 Z M1,29.7072 L29,1.7071 L35.2929,8 L1,42.2929 L1,29.7072 Z M1,43.7071 L35.9999,8.7071 L42.2929,15 L1,56.293 L1,43.7071 Z M85,15.707 L85,28.2929 L57.0001,56.2929 L43.7072,43 L50,36.7071 L57,43.7071 L85,15.707 Z M85,29.7071 L85,42.2928 L70.2929,57 L57.7071,57 L85,29.7071 Z M22,36.7071 L42.2929,57 L29.7071,57 L22,49.2929 L14.2929,57 L1.7071,57 L22,36.7071 Z M85,43.7071 L85,57 L71.7071,57 L85,43.7071 Z M36.7071,50 L43,43.7071 L56.2928,57 L43.7072,57 L36.7071,50 Z M22,50.7071 L28.2928,57 L15.7072,57 L22,50.7071 Z" id="Page-1" fill="#FFFFFF"></path>
    </g>
</svg>