<?xml version="1.0" encoding="UTF-8"?>
<svg width="172px" height="116px" viewBox="0 0 172 116" version="1.1" xmlns="http://www.w3.org/2000/svg" xmlns:xlink="http://www.w3.org/1999/xlink">
  <path d="M0,116 L172,116 L172,0 L0,0 L0,116 Z M59.4142,86 L143.4142,2 L168.5856,2 L72.0002,98.586 L59.4142,86 Z M45.4142,71.9998 L115.4142,2 L140.5858,2 L58.0002,84.5858 L45.4142,71.9998 Z M87.4144,2 L112.5856,2 L100,14.5856 L87.4144,2 Z M59.4142,2 L84.5858,2 L98.5858,16 L86,28.5856 L59.4142,2 Z M2,31.4142 L31.4144,2 L56.5856,2 L2,56.586 L2,31.4142 Z M2,2 L28.5858,2 L2,28.5856 L2,2 Z M101.4144,71.9998 L170,3.4142 L170,28.5856 L114.0002,84.5858 L101.4144,71.9998 Z M2,59.4144 L58,3.4142 L70.5858,16 L2,84.5858 L2,59.4144 Z M2,87.4142 L71.9998,17.4142 L84.5858,30 L2,112.586 L2,87.4142 Z M170,31.414 L170,56.5858 L114.0002,112.5858 L87.4144,86 L100,73.4142 L114,87.4142 L170,31.414 Z M170,59.4142 L170,84.5856 L140.5858,114 L115.4142,114 L170,59.4142 Z M44,73.4142 L84.5858,114 L59.4142,114 L44,98.5858 L28.5858,114 L3.4142,114 L44,73.4142 Z M170,87.4142 L170,114 L143.4142,114 L170,87.4142 Z M73.4142,100 L86,87.4142 L112.5856,114 L87.4144,114 L73.4142,100 Z M44,101.4142 L56.5856,114 L31.4144,114 L44,101.4142 Z" id="Logo"></path>
</svg>
