<?xml version="1.0" encoding="UTF-8"?>
<svg width="16px" height="16px" viewBox="0 0 16 16" version="1.1" xmlns="http://www.w3.org/2000/svg" xmlns:xlink="http://www.w3.org/1999/xlink">
    <title>icon-heart</title>
    <g id="Site" stroke="none" stroke-width="1" fill="none" fill-rule="evenodd">
        <g id="icon-heart" fill="#B8E986">
            <path d="M0,5.2 C-2.60527616e-08,3.8 0.667480469,1 4,1 C7.33251953,1 8,3.8 8,3.8 C8,3.8 8.74023438,1 12,1 C15.2597656,1 16,3.8 16,5.2 C16,10.6942139 8,15 8,15 C8,15 1.04971131e-07,10.8408447 0,5.2 Z M8.70343136,13.4039595 C9.60309016,12.8167648 10.5027838,12.1471621 11.3386911,11.4102165 C13.6443018,9.37756326 15,7.25130205 15,5.2 C15,3.4349892 14.0282593,2 12,2 C10.878505,2 10.0975675,2.38839617 9.54085501,3.04608304 C9.20570275,3.44202395 9.02447741,3.83736452 8.96678565,4.05558856 C8.70105399,5.06074132 7.26834813,5.04323406 7.02725753,4.03188807 C6.97662821,3.8195042 6.80666155,3.43034198 6.48152845,3.04025028 C5.93754147,2.38757972 5.15321027,2 4,2 C1.92520947,2 0.999999966,3.38757227 1,5.19999998 C1.00000004,7.31638844 2.35369531,9.4519142 4.65741445,11.4617875 C5.49164337,12.1896082 6.38960665,12.846402 7.28750458,13.418733 C7.53871553,13.5788578 7.77509015,13.7227913 7.99256426,13.8497834 C8.21172466,13.7182301 8.45006105,13.5693308 8.70343136,13.4039595 Z"></path>
        </g>
    </g>
</svg>
