<svg height="58" viewBox="0 0 86 58" width="86" xmlns="http://www.w3.org/2000/svg"><path d="m0 58h86v-58h-86zm29.7071-15 42-42h12.5857l-48.2927 48.293zm-7-7.0001 35-34.9999h12.5858l-41.2928 41.2929zm21.0001-34.9999h12.5856l-6.2928 6.2928zm-14.0001 0h12.5858l7 7-6.2929 6.2928zm-28.7071 14.7071 14.7072-14.7071h12.5856l-27.2928 27.293zm0-14.7071h13.2929l-13.2929 13.2928zm49.7072 34.9999 34.2928-34.2928v12.5857l-27.9999 28.0001zm-49.7072-6.2927 28-28.0001 6.2929 6.2929-34.2929 34.2929zm0 13.9999 34.9999-35 6.293 6.2929-41.2929 41.293zm84-28.0001v12.5859l-27.9999 28-13.2929-13.2929 6.2928-6.2929 7 7zm0 14.0001v12.5857l-14.7071 14.7072h-12.5858zm-63 7 20.2929 20.2929h-12.5858l-7.7071-7.7071-7.7071 7.7071h-12.5858zm63 7v13.2929h-13.2929zm-48.2929 6.2929 6.2929-6.2929 13.2928 13.2929h-12.5856zm-14.7071.7071 6.2928 6.2929h-12.5856z" fill="#fff" fill-rule="evenodd"/></svg>