<svg height="116" viewBox="0 0 172 116" width="172" xmlns="http://www.w3.org/2000/svg"><path d="m0 116h172v-116h-172zm59.4142-30 84-84h25.1714l-96.5854 96.586zm-14-14.0002 70-69.9998h25.1716l-82.5856 82.5858zm42.0002-69.9998h25.1712l-12.5856 12.5856zm-28.0002 0h25.1716l14 14-12.5858 12.5856zm-57.4142 29.4142 29.4144-29.4142h25.1712l-54.5856 54.586zm0-29.4142h26.5858l-26.5858 26.5856zm99.4144 69.9998 68.5856-68.5856v25.1714l-55.9998 56.0002zm-99.4144-12.5854 56-56.0002 12.5858 12.5858-68.5858 68.5858zm0 27.9998 69.9998-70 12.586 12.5858-82.5858 82.586zm168-56.0002v25.1718l-55.9998 56-26.5858-26.5858 12.5856-12.5858 14 14zm0 28.0002v25.1714l-29.4142 29.4144h-25.1716zm-126 14 40.5858 40.5858h-25.1716l-15.4142-15.4142-15.4142 15.4142h-25.1716zm126 14v26.5858h-26.5858zm-96.5858 12.5858 12.5858-12.5858 26.5856 26.5858h-25.1712zm-29.4142 1.4142 12.5856 12.5858h-25.1712z"/></svg>